NotoSansOldPermic-Regular.ufo
<glyph name="uni0300" format="2">
  <unicode hex="0300"/>
  <outline>
    <contour>
      <point x="-41" y="766" type="curve"/>
      <point x="-144" y="766" type="line"/>
      <point x="-144" y="756" type="line"/>
      <point x="-121" y="719"/>
      <point x="-51" y="642"/>
      <point x="-8" y="606" type="curve"/>
      <point x="51" y="606" type="line"/>
      <point x="51" y="618" type="line"/>
      <point x="22" y="655"/>
      <point x="-20" y="721"/>
    </contour>
  </outline>
</glyph>
<glyph name="uni0307" format="2">
  <unicode hex="0307"/>
  <outline>
    <contour>
      <point x="0" y="740" type="curve" smooth="yes"/>
      <point x="-28" y="740"/>
      <point x="-51" y="723"/>
      <point x="-51" y="684" type="curve" smooth="yes"/>
      <point x="-51" y="646"/>
      <point x="-28" y="628"/>
      <point x="0" y="628" type="curve" smooth="yes"/>
      <point x="27" y="628"/>
      <point x="50" y="646"/>
      <point x="50" y="684" type="curve" smooth="yes"/>
      <point x="50" y="723"/>
      <point x="27" y="740"/>
    </contour>
  </outline>
</glyph>
<glyph name="uni0308" format="2">
  <unicode hex="0308"/>
  <outline>
    <contour>
      <point x="-142" y="686" type="curve" smooth="yes"/>
      <point x="-142" y="649"/>
      <point x="-120" y="631"/>
      <point x="-92" y="631" type="curve" smooth="yes"/>
      <point x="-65" y="631"/>
      <point x="-42" y="649"/>
      <point x="-42" y="686" type="curve" smooth="yes"/>
      <point x="-42" y="725"/>
      <point x="-65" y="740"/>
      <point x="-92" y="740" type="curve" smooth="yes"/>
      <point x="-120" y="740"/>
      <point x="-142" y="725"/>
    </contour>
    <contour>
      <point x="44" y="686" type="curve" smooth="yes"/>
      <point x="44" y="649"/>
      <point x="67" y="631"/>
      <point x="94" y="631" type="curve" smooth="yes"/>
      <point x="121" y="631"/>
      <point x="144" y="649"/>
      <point x="144" y="686" type="curve" smooth="yes"/>
      <point x="144" y="725"/>
      <point x="121" y="740"/>
      <point x="94" y="740" type="curve" smooth="yes"/>
      <point x="67" y="740"/>
      <point x="44" y="725"/>
    </contour>
  </outline>
</glyph>
<glyph name="uni0313" format="2">
  <unicode hex="0313"/>
  <outline>
    <contour>
      <point x="-51" y="606" type="line"/>
      <point x="26" y="623"/>
      <point x="53" y="673"/>
      <point x="53" y="738" type="curve" smooth="yes"/>
      <point x="53" y="779"/>
      <point x="32" y="805"/>
      <point x="0" y="805" type="curve" smooth="yes"/>
      <point x="-31" y="805"/>
      <point x="-52" y="782"/>
      <point x="-52" y="748" type="curve" smooth="yes"/>
      <point x="-52" y="711"/>
      <point x="-29" y="693"/>
      <point x="0" y="693" type="curve"/>
      <point x="-5" y="676"/>
      <point x="-14" y="654"/>
      <point x="-51" y="644" type="curve"/>
    </contour>
  </outline>
</glyph>
<glyph name="uni20DB" format="2">
  <unicode hex="20DB"/>
  <outline>
    <contour>
      <point x="-236" y="686" type="curve" smooth="yes"/>
      <point x="-236" y="649"/>
      <point x="-214" y="631"/>
      <point x="-186" y="631" type="curve" smooth="yes"/>
      <point x="-159" y="631"/>
      <point x="-136" y="649"/>
      <point x="-136" y="686" type="curve" smooth="yes"/>
      <point x="-136" y="725"/>
      <point x="-159" y="740"/>
      <point x="-186" y="740" type="curve" smooth="yes"/>
      <point x="-214" y="740"/>
      <point x="-236" y="725"/>
    </contour>
    <contour>
      <point x="-50" y="686" type="curve" smooth="yes"/>
      <point x="-50" y="649"/>
      <point x="-28" y="631"/>
      <point x="0" y="631" type="curve" smooth="yes"/>
      <point x="27" y="631"/>
      <point x="50" y="649"/>
      <point x="50" y="686" type="curve" smooth="yes"/>
      <point x="50" y="725"/>
      <point x="27" y="740"/>
      <point x="0" y="740" type="curve" smooth="yes"/>
      <point x="-28" y="740"/>
      <point x="-50" y="725"/>
    </contour>
    <contour>
      <point x="136" y="686" type="curve" smooth="yes"/>
      <point x="136" y="649"/>
      <point x="159" y="631"/>
      <point x="186" y="631" type="curve" smooth="yes"/>
      <point x="213" y="631"/>
      <point x="236" y="649"/>
      <point x="236" y="686" type="curve" smooth="yes"/>
      <point x="236" y="725"/>
      <point x="213" y="740"/>
      <point x="186" y="740" type="curve" smooth="yes"/>
      <point x="159" y="740"/>
      <point x="136" y="725"/>
    </contour>
  </outline>
</glyph>
<glyph name="u10354" format="2">
  <advance width="549"/>
  <unicode hex="10354"/>
  <outline>
    <contour>
      <point x="91" y="0" type="line"/>
      <point x="180" y="0" type="line"/>
      <point x="180" y="217" type="line"/>
      <point x="382" y="261"/>
      <point x="525" y="489"/>
      <point x="541" y="714" type="curve"/>
      <point x="452" y="714" type="line"/>
      <point x="435" y="533"/>
      <point x="332" y="341"/>
      <point x="180" y="296" type="curve"/>
      <point x="180" y="638" type="line"/>
      <point x="91" y="638" type="line"/>
    </contour>
  </outline>
</glyph>
<glyph name="u10355" format="2">
  <advance width="788"/>
  <unicode hex="10355"/>
  <outline>
    <contour>
      <point x="38" y="0" type="line"/>
      <point x="127" y="0" type="line"/>
      <point x="211" y="392" type="line" smooth="yes"/>
      <point x="231" y="487"/>
      <point x="255" y="559"/>
      <point x="323" y="559" type="curve" smooth="yes"/>
      <point x="608" y="559" type="line"/>
      <point x="608" y="0" type="line"/>
      <point x="697" y="0" type="line"/>
      <point x="697" y="638" type="line"/>
      <point x="333" y="638" type="line" smooth="yes"/>
      <point x="190" y="638"/>
      <point x="145" y="539"/>
      <point x="119" y="409" type="curve" smooth="yes"/>
    </contour>
    <contour>
      <point x="356" y="0" type="line"/>
      <point x="445" y="0" type="line"/>
      <point x="445" y="588" type="line"/>
      <point x="356" y="588" type="line"/>
    </contour>
  </outline>
</glyph>
<glyph name="u10357" format="2">
  <advance width="646"/>
  <unicode hex="10357"/>
  <outline>
    <contour>
      <point x="472" y="0" type="line"/>
      <point x="561" y="0" type="line"/>
      <point x="561" y="638" type="line"/>
      <point x="180" y="638" type="line"/>
      <point x="180" y="558" type="line"/>
      <point x="472" y="558" type="line"/>
    </contour>
    <contour>
      <point x="91" y="0" type="line"/>
      <point x="472" y="0" type="line"/>
      <point x="472" y="80" type="line"/>
      <point x="180" y="80" type="line"/>
      <point x="180" y="638" type="line"/>
      <point x="91" y="638" type="line"/>
    </contour>
  </outline>
</glyph>
<glyph name="u10359" format="2">
  <advance width="513"/>
  <unicode hex="10359"/>
  <outline>
    <contour>
      <point x="333" y="0" type="line"/>
      <point x="422" y="0" type="line"/>
      <point x="422" y="638" type="line"/>
      <point x="41" y="638" type="line"/>
      <point x="41" y="558" type="line"/>
      <point x="333" y="558" type="line"/>
    </contour>
    <contour>
      <point x="41" y="458" type="line"/>
      <point x="123" y="458" type="line"/>
      <point x="123" y="638" type="line"/>
      <point x="41" y="638" type="line"/>
    </contour>
  </outline>
</glyph>
<glyph name="u1035A" format="2">
  <advance width="621"/>
  <unicode hex="1035A"/>
  <outline>
    <contour>
      <point x="155" y="37" type="line"/>
      <point x="244" y="37" type="line"/>
      <point x="302" y="437" type="line" smooth="yes"/>
      <point x="313" y="515"/>
      <point x="336" y="569"/>
      <point x="396" y="569" type="curve" smooth="yes"/>
      <point x="442" y="569"/>
      <point x="458" y="535"/>
      <point x="462" y="479" type="curve"/>
      <point x="546" y="479" type="line"/>
      <point x="546" y="565"/>
      <point x="498" y="647"/>
      <point x="391" y="647" type="curve" smooth="yes"/>
      <point x="276" y="647"/>
      <point x="231" y="557"/>
      <point x="215" y="446" type="curve" smooth="yes"/>
    </contour>
    <contour>
      <point x="16" y="-108" type="line"/>
      <point x="101" y="-108" type="line"/>
      <point x="101" y="0" type="line"/>
      <point x="520" y="0" type="line"/>
      <point x="520" y="-108" type="line"/>
      <point x="605" y="-108" type="line"/>
      <point x="605" y="80" type="line"/>
      <point x="16" y="80" type="line"/>
    </contour>
  </outline>
</glyph>
<glyph name="u1035F" format="2">
  <advance width="551"/>
  <unicode hex="1035F"/>
  <outline>
    <contour>
      <point x="138" y="-187" type="curve"/>
      <point x="240" y="-187" type="line"/>
      <point x="334" y="-43"/>
      <point x="414" y="109"/>
      <point x="467" y="228" type="curve" smooth="yes"/>
      <point x="484" y="267"/>
      <point x="493" y="300"/>
      <point x="493" y="334" type="curve" smooth="yes"/>
      <point x="493" y="382"/>
      <point x="468" y="412"/>
      <point x="409" y="412" type="curve" smooth="yes"/>
      <point x="381" y="412"/>
      <point x="335" y="405"/>
      <point x="300" y="398" type="curve" smooth="yes"/>
      <point x="180" y="375" type="line"/>
      <point x="180" y="714" type="line"/>
      <point x="91" y="714" type="line"/>
      <point x="91" y="277" type="line"/>
      <point x="306" y="319" type="line" smooth="yes"/>
      <point x="340" y="326"/>
      <point x="371" y="332"/>
      <point x="388" y="332" type="curve" smooth="yes"/>
      <point x="400" y="332"/>
      <point x="404" y="326"/>
      <point x="404" y="316" type="curve" smooth="yes"/>
      <point x="404" y="304"/>
      <point x="394" y="279"/>
      <point x="385" y="258" type="curve" smooth="yes"/>
      <point x="323" y="117"/>
      <point x="234" y="-43"/>
    </contour>
  </outline>
</glyph>
<glyph name="u10360" format="2">
  <advance width="548"/>
  <unicode hex="10360"/>
  <outline>
    <contour>
      <point x="229" y="0" type="line"/>
      <point x="319" y="0" type="line"/>
      <point x="515" y="583" type="line"/>
      <point x="515" y="638" type="line"/>
      <point x="444" y="638" type="line"/>
      <point x="316" y="258" type="line" smooth="yes"/>
      <point x="296" y="198"/>
      <point x="282" y="147"/>
      <point x="274" y="100" type="curve"/>
      <point x="265" y="147"/>
      <point x="252" y="197"/>
      <point x="232" y="256" type="curve" smooth="yes"/>
      <point x="103" y="638" type="line"/>
      <point x="33" y="638" type="line"/>
      <point x="33" y="584" type="line"/>
    </contour>
    <contour>
      <point x="72" y="559" type="line"/>
      <point x="480" y="559" type="line"/>
      <point x="480" y="638" type="line"/>
      <point x="72" y="638" type="line"/>
    </contour>
  </outline>
</glyph>
<glyph name="u10361" format="2">
  <advance width="579"/>
  <unicode hex="10361"/>
  <outline>
    <contour>
      <point x="312" y="-14" type="curve" smooth="yes"/>
      <point x="469" y="-14"/>
      <point x="539" y="91"/>
      <point x="539" y="200" type="curve"/>
      <point x="455" y="200" type="line"/>
      <point x="447" y="116"/>
      <point x="414" y="64"/>
      <point x="317" y="64" type="curve" smooth="yes"/>
      <point x="220" y="64"/>
      <point x="173" y="132"/>
      <point x="173" y="251" type="curve" smooth="yes"/>
      <point x="173" y="638" type="line"/>
      <point x="84" y="638" type="line"/>
      <point x="84" y="254" type="line" smooth="yes"/>
      <point x="84" y="92"/>
      <point x="163" y="-14"/>
    </contour>
    <contour>
      <point x="128" y="559" type="line"/>
      <point x="266" y="559" type="line"/>
      <point x="266" y="638" type="line"/>
      <point x="128" y="638" type="line"/>
    </contour>
  </outline>
</glyph>
<glyph name="u10362" format="2">
  <advance width="669"/>
  <unicode hex="10362"/>
  <outline>
    <contour>
      <point x="289" y="22" type="line"/>
      <point x="378" y="22" type="line"/>
      <point x="378" y="559" type="line"/>
      <point x="554" y="559" type="line"/>
      <point x="554" y="638" type="line"/>
      <point x="111" y="638" type="line"/>
      <point x="111" y="559" type="line"/>
      <point x="289" y="559" type="line"/>
    </contour>
    <contour>
      <point x="339" y="-13" type="curve" smooth="yes"/>
      <point x="436" y="-13"/>
      <point x="528" y="8"/>
      <point x="598" y="55" type="curve"/>
      <point x="598" y="135" type="line"/>
      <point x="521" y="90"/>
      <point x="431" y="67"/>
      <point x="339" y="67" type="curve" smooth="yes"/>
      <point x="243" y="67"/>
      <point x="150" y="91"/>
      <point x="75" y="136" type="curve"/>
      <point x="75" y="55" type="line"/>
      <point x="148" y="8"/>
      <point x="241" y="-13"/>
    </contour>
    <contour>
      <point x="71" y="458" type="line"/>
      <point x="153" y="458" type="line"/>
      <point x="153" y="638" type="line"/>
      <point x="71" y="638" type="line"/>
    </contour>
    <contour>
      <point x="512" y="458" type="line"/>
      <point x="594" y="458" type="line"/>
      <point x="594" y="638" type="line"/>
      <point x="512" y="638" type="line"/>
    </contour>
  </outline>
</glyph>
<glyph name="u10364" format="2">
  <advance width="530"/>
  <unicode hex="10364"/>
  <outline>
    <contour>
      <point x="39" y="-194" type="line"/>
      <point x="236" y="76"/>
      <point x="390" y="359"/>
      <point x="507" y="638" type="curve"/>
      <point x="413" y="638" type="line"/>
      <point x="286" y="349"/>
      <point x="137" y="86"/>
      <point x="-37" y="-152" type="curve"/>
    </contour>
    <contour>
      <point x="42" y="-204" type="line"/>
      <point x="169" y="-117"/>
      <point x="329" y="-50"/>
      <point x="490" y="-3" type="curve"/>
      <point x="451" y="67" type="line"/>
      <point x="326" y="35"/>
      <point x="206" y="-15"/>
      <point x="120" y="-73" type="curve"/>
      <point x="-37" y="-152" type="line"/>
    </contour>
    <contour>
      <point x="269" y="207" type="line"/>
      <point x="311" y="278" type="line"/>
      <point x="105" y="401" type="line"/>
      <point x="63" y="331" type="line"/>
    </contour>
  </outline>
</glyph>
<glyph name="u10365" format="2">
  <advance width="719"/>
  <unicode hex="10365"/>
  <outline>
    <contour>
      <point x="0" y="0" type="line"/>
      <point x="94" y="0" type="line"/>
      <point x="215" y="376" type="line" smooth="yes"/>
      <point x="235" y="438"/>
      <point x="253" y="494"/>
      <point x="265" y="544" type="curve"/>
      <point x="282" y="491"/>
      <point x="305" y="433"/>
      <point x="332" y="367" type="curve" smooth="yes"/>
      <point x="483" y="0" type="line"/>
      <point x="580" y="0" type="line"/>
      <point x="310" y="638" type="line"/>
      <point x="214" y="638" type="line"/>
    </contour>
    <contour>
      <point x="468" y="234" type="curve" smooth="yes"/>
      <point x="584" y="234"/>
      <point x="668" y="309"/>
      <point x="668" y="443" type="curve" smooth="yes"/>
      <point x="668" y="577"/>
      <point x="585" y="648"/>
      <point x="473" y="648" type="curve" smooth="yes"/>
      <point x="402" y="648"/>
      <point x="352" y="620"/>
      <point x="315" y="579" type="curve"/>
      <point x="336" y="499" type="line"/>
      <point x="368" y="541"/>
      <point x="409" y="569"/>
      <point x="465" y="569" type="curve" smooth="yes"/>
      <point x="525" y="569"/>
      <point x="576" y="533"/>
      <point x="576" y="442" type="curve" smooth="yes"/>
      <point x="576" y="347"/>
      <point x="526" y="314"/>
      <point x="459" y="314" type="curve" smooth="yes"/>
      <point x="436" y="314"/>
      <point x="415" y="320"/>
      <point x="393" y="333" type="curve"/>
      <point x="401" y="244" type="line"/>
      <point x="426" y="237"/>
      <point x="438" y="234"/>
    </contour>
  </outline>
</glyph>
<glyph name="u10366" format="2">
  <advance width="788"/>
  <unicode hex="10366"/>
  <outline>
    <contour>
      <point x="91" y="0" type="line"/>
      <point x="455" y="0" type="line" smooth="yes"/>
      <point x="598" y="0"/>
      <point x="643" y="99"/>
      <point x="669" y="229" type="curve" smooth="yes"/>
      <point x="750" y="638" type="line"/>
      <point x="661" y="638" type="line"/>
      <point x="577" y="246" type="line" smooth="yes"/>
      <point x="557" y="151"/>
      <point x="533" y="79"/>
      <point x="465" y="79" type="curve" smooth="yes"/>
      <point x="180" y="79" type="line"/>
      <point x="180" y="638" type="line"/>
      <point x="91" y="638" type="line"/>
    </contour>
    <contour>
      <point x="343" y="50" type="line"/>
      <point x="432" y="50" type="line"/>
      <point x="432" y="638" type="line"/>
      <point x="343" y="638" type="line"/>
    </contour>
  </outline>
</glyph>
<glyph name="u10368" format="2">
  <advance width="788"/>
  <unicode hex="10368"/>
  <outline>
    <contour>
      <point x="661" y="0" type="line"/>
      <point x="750" y="0" type="line"/>
      <point x="669" y="409" type="line" smooth="yes"/>
      <point x="643" y="539"/>
      <point x="598" y="638"/>
      <point x="455" y="638" type="curve" smooth="yes"/>
      <point x="343" y="638" type="line"/>
      <point x="343" y="559" type="line"/>
      <point x="465" y="559" type="line" smooth="yes"/>
      <point x="533" y="559"/>
      <point x="557" y="487"/>
      <point x="577" y="392" type="curve" smooth="yes"/>
    </contour>
    <contour>
      <point x="136" y="0" type="line"/>
      <point x="384" y="0" type="line"/>
      <point x="384" y="79" type="line"/>
      <point x="136" y="79" type="line"/>
    </contour>
    <contour>
      <point x="91" y="0" type="line"/>
      <point x="180" y="0" type="line"/>
      <point x="180" y="638" type="line"/>
      <point x="91" y="638" type="line"/>
    </contour>
    <contour>
      <point x="343" y="0" type="line"/>
      <point x="432" y="0" type="line"/>
      <point x="432" y="588" type="line"/>
      <point x="343" y="588" type="line"/>
    </contour>
  </outline>
</glyph>
<glyph name="u1036A" format="2">
  <advance width="824"/>
  <unicode hex="1036A"/>
  <outline>
    <contour>
      <point x="265" y="-14" type="curve" smooth="yes"/>
      <point x="336" y="-14"/>
      <point x="383" y="21"/>
      <point x="408" y="87" type="curve"/>
      <point x="412" y="87" type="line"/>
      <point x="439" y="21"/>
      <point x="487" y="-14"/>
      <point x="562" y="-14" type="curve" smooth="yes"/>
      <point x="697" y="-14"/>
      <point x="771" y="97"/>
      <point x="771" y="308" type="curve" smooth="yes"/>
      <point x="771" y="405"/>
      <point x="751" y="512"/>
      <point x="706" y="638" type="curve"/>
      <point x="614" y="638" type="line"/>
      <point x="660" y="512"/>
      <point x="681" y="409"/>
      <point x="681" y="310" type="curve" smooth="yes"/>
      <point x="681" y="130"/>
      <point x="632" y="59"/>
      <point x="555" y="59" type="curve" smooth="yes"/>
      <point x="488" y="59"/>
      <point x="459" y="129"/>
      <point x="459" y="246" type="curve" smooth="yes"/>
      <point x="459" y="429" type="line"/>
      <point x="370" y="429" type="line"/>
      <point x="370" y="246" type="line" smooth="yes"/>
      <point x="370" y="125"/>
      <point x="338" y="59"/>
      <point x="271" y="59" type="curve" smooth="yes"/>
      <point x="193" y="59"/>
      <point x="142" y="130"/>
      <point x="142" y="311" type="curve" smooth="yes"/>
      <point x="142" y="408"/>
      <point x="164" y="512"/>
      <point x="213" y="638" type="curve"/>
      <point x="121" y="638" type="line"/>
      <point x="74" y="512"/>
      <point x="53" y="405"/>
      <point x="53" y="309" type="curve" smooth="yes"/>
      <point x="53" y="98"/>
      <point x="128" y="-14"/>
    </contour>
  </outline>
</glyph>
<glyph name="u1036C" format="2">
  <advance width="702"/>
  <unicode hex="1036C"/>
  <outline>
    <contour>
      <point x="-83" y="-187" type="line"/>
      <point x="83" y="-187" type="line"/>
      <point x="591" y="714" type="line"/>
      <point x="490" y="714" type="line"/>
      <point x="28" y="-106" type="line"/>
      <point x="-83" y="-106" type="line"/>
    </contour>
    <contour>
      <point x="80" y="370" type="line"/>
      <point x="678" y="370" type="line"/>
      <point x="678" y="450" type="line"/>
      <point x="80" y="450" type="line"/>
    </contour>
  </outline>
</glyph>
<glyph name="u1036E" format="2">
  <advance width="536"/>
  <unicode hex="1036E"/>
  <outline>
    <contour>
      <point x="29" y="0" type="line"/>
      <point x="87" y="0" type="line"/>
      <point x="269" y="267" type="line"/>
      <point x="444" y="0" type="line"/>
      <point x="508" y="0" type="line"/>
      <point x="508" y="55" type="line"/>
      <point x="320" y="327" type="line"/>
      <point x="490" y="583" type="line"/>
      <point x="490" y="638" type="line"/>
      <point x="433" y="638" type="line"/>
      <point x="269" y="387" type="line"/>
      <point x="106" y="638" type="line"/>
      <point x="44" y="638" type="line"/>
      <point x="44" y="583" type="line"/>
      <point x="216" y="327" type="line"/>
      <point x="29" y="55" type="line"/>
    </contour>
    <contour>
      <point x="29" y="0" type="line"/>
      <point x="508" y="0" type="line"/>
      <point x="508" y="55" type="line"/>
      <point x="468" y="79" type="line"/>
      <point x="69" y="79" type="line"/>
      <point x="29" y="55" type="line"/>
    </contour>
    <contour>
      <point x="84" y="559" type="line"/>
      <point x="450" y="559" type="line"/>
      <point x="490" y="583" type="line"/>
      <point x="490" y="638" type="line"/>
      <point x="44" y="638" type="line"/>
      <point x="44" y="583" type="line"/>
    </contour>
  </outline>
</glyph>
<glyph name="u10370" format="2">
  <advance width="546"/>
  <unicode hex="10370"/>
  <outline>
    <contour>
      <point x="91" y="0" type="line"/>
      <point x="512" y="0" type="line"/>
      <point x="512" y="80" type="line"/>
      <point x="180" y="80" type="line"/>
      <point x="180" y="638" type="line"/>
      <point x="91" y="638" type="line"/>
    </contour>
    <contour>
      <point x="430" y="0" type="line"/>
      <point x="512" y="0" type="line"/>
      <point x="512" y="180" type="line"/>
      <point x="430" y="180" type="line"/>
    </contour>
  </outline>
</glyph>
<glyph name="u10373" format="2">
  <advance width="920"/>
  <unicode hex="10373"/>
  <outline>
    <contour>
      <point x="458" y="0" type="line"/>
      <point x="547" y="0" type="line"/>
      <point x="547" y="447" type="line" smooth="yes"/>
      <point x="547" y="577"/>
      <point x="486" y="648"/>
      <point x="391" y="648" type="curve" smooth="yes"/>
      <point x="320" y="648"/>
      <point x="260" y="604"/>
      <point x="218" y="559" type="curve"/>
      <point x="218" y="469" type="line"/>
      <point x="278" y="531"/>
      <point x="329" y="569"/>
      <point x="380" y="569" type="curve" smooth="yes"/>
      <point x="431" y="569"/>
      <point x="458" y="524"/>
      <point x="458" y="434" type="curve" smooth="yes"/>
    </contour>
    <contour>
      <point x="148" y="0" type="line"/>
      <point x="237" y="0" type="line"/>
      <point x="237" y="638" type="line"/>
      <point x="148" y="638" type="line"/>
    </contour>
    <contour>
      <point x="490" y="0" type="line"/>
      <point x="648" y="0" type="line"/>
      <point x="648" y="79" type="line"/>
      <point x="490" y="79" type="line"/>
    </contour>
    <contour>
      <point x="24" y="559" type="line"/>
      <point x="192" y="559" type="line"/>
      <point x="192" y="638" type="line"/>
      <point x="24" y="638" type="line"/>
    </contour>
    <contour>
      <point x="768" y="261" type="line"/>
      <point x="857" y="261" type="line"/>
      <point x="857" y="447" type="line" smooth="yes"/>
      <point x="857" y="577"/>
      <point x="796" y="648"/>
      <point x="701" y="648" type="curve" smooth="yes"/>
      <point x="617" y="648"/>
      <point x="561" y="595"/>
      <point x="522" y="553" type="curve"/>
      <point x="522" y="463" type="line"/>
      <point x="582" y="525"/>
      <point x="636" y="569"/>
      <point x="690" y="569" type="curve" smooth="yes"/>
      <point x="741" y="569"/>
      <point x="768" y="524"/>
      <point x="768" y="434" type="curve" smooth="yes"/>
    </contour>
  </outline>
</glyph>
<glyph name="u10374" format="2">
  <advance width="785"/>
  <unicode hex="10374"/>
  <outline>
    <contour>
      <point x="581" y="0" type="line"/>
      <point x="670" y="0" type="line"/>
      <point x="670" y="427" type="line" smooth="yes"/>
      <point x="670" y="570"/>
      <point x="602" y="648"/>
      <point x="487" y="648" type="curve" smooth="yes"/>
      <point x="410" y="648"/>
      <point x="365" y="612"/>
      <point x="311" y="559" type="curve"/>
      <point x="311" y="478" type="line"/>
      <point x="365" y="530"/>
      <point x="406" y="569"/>
      <point x="476" y="569" type="curve" smooth="yes"/>
      <point x="548" y="569"/>
      <point x="581" y="518"/>
      <point x="581" y="414" type="curve" smooth="yes"/>
    </contour>
    <contour>
      <point x="34" y="458" type="line"/>
      <point x="116" y="458" type="line"/>
      <point x="116" y="638" type="line"/>
      <point x="34" y="638" type="line"/>
    </contour>
    <contour>
      <point x="231" y="0" type="line"/>
      <point x="320" y="0" type="line"/>
      <point x="320" y="638" type="line"/>
      <point x="231" y="638" type="line"/>
    </contour>
    <contour>
      <point x="613" y="0" type="line"/>
      <point x="761" y="0" type="line"/>
      <point x="761" y="79" type="line"/>
      <point x="613" y="79" type="line"/>
    </contour>
    <contour>
      <point x="97" y="559" type="line"/>
      <point x="275" y="559" type="line"/>
      <point x="275" y="638" type="line"/>
      <point x="97" y="638" type="line"/>
    </contour>
  </outline>
</glyph>
<glyph name="u10377" format="2">
  <unicode hex="10377"/>
  <outline>
    <contour>
      <point x="-152" y="287" type="curve"/>
      <point x="-76" y="287" type="line"/>
      <point x="-67" y="362"/>
      <point x="-43" y="435"/>
      <point x="0" y="509" type="curve"/>
      <point x="40" y="438"/>
      <point x="64" y="364"/>
      <point x="74" y="287" type="curve"/>
      <point x="153" y="287" type="line"/>
      <point x="138" y="366"/>
      <point x="114" y="442"/>
      <point x="73" y="512" type="curve" smooth="yes"/>
      <point x="49" y="553"/>
      <point x="40" y="571"/>
      <point x="40" y="592" type="curve" smooth="yes"/>
      <point x="40" y="638" type="line"/>
      <point x="-40" y="638" type="line"/>
      <point x="-40" y="592" type="line" smooth="yes"/>
      <point x="-40" y="571"/>
      <point x="-53" y="547"/>
      <point x="-73" y="512" type="curve" smooth="yes"/>
      <point x="-115" y="438"/>
      <point x="-142" y="364"/>
    </contour>
  </outline>
</glyph>
<glyph name="u10379" format="2">
  <unicode hex="10379"/>
  <outline>
    <contour>
      <point x="19" y="287" type="line"/>
      <point x="91" y="287" type="line"/>
      <point x="201" y="632" type="line"/>
      <point x="119" y="632" type="line"/>
      <point x="71" y="448" type="line" smooth="yes"/>
      <point x="64" y="422"/>
      <point x="59" y="395"/>
      <point x="56" y="376" type="curve"/>
      <point x="53" y="395"/>
      <point x="48" y="422"/>
      <point x="41" y="447" type="curve" smooth="yes"/>
      <point x="16" y="543" type="line" smooth="yes"/>
      <point x="-1" y="609"/>
      <point x="-37" y="638"/>
      <point x="-99" y="638" type="curve" smooth="yes"/>
      <point x="-155" y="638"/>
      <point x="-202" y="602"/>
      <point x="-202" y="543" type="curve" smooth="yes"/>
      <point x="-202" y="496"/>
      <point x="-171" y="466"/>
      <point x="-127" y="451" type="curve"/>
      <point x="-91" y="508" type="line"/>
      <point x="-115" y="514"/>
      <point x="-130" y="525"/>
      <point x="-130" y="545" type="curve" smooth="yes"/>
      <point x="-130" y="561"/>
      <point x="-118" y="574"/>
      <point x="-101" y="574" type="curve" smooth="yes"/>
      <point x="-80" y="574"/>
      <point x="-69" y="560"/>
      <point x="-59" y="529" type="curve" smooth="yes"/>
    </contour>
  </outline>
</glyph>
<glyph name="u1037A" format="2">
  <unicode hex="1037A"/>
  <outline>
    <contour>
      <point x="0" y="279" type="curve" smooth="yes"/>
      <point x="94" y="279"/>
      <point x="135" y="343"/>
      <point x="135" y="410" type="curve"/>
      <point x="58" y="410" type="line"/>
      <point x="54" y="368"/>
      <point x="42" y="342"/>
      <point x="3" y="342" type="curve" smooth="yes"/>
      <point x="-38" y="342"/>
      <point x="-58" y="373"/>
      <point x="-58" y="427" type="curve" smooth="yes"/>
      <point x="-58" y="638" type="line"/>
      <point x="-136" y="638" type="line"/>
      <point x="-136" y="428" type="line" smooth="yes"/>
      <point x="-136" y="338"/>
      <point x="-89" y="279"/>
    </contour>
    <contour>
      <point x="-102" y="577" type="line"/>
      <point x="-1" y="577" type="line"/>
      <point x="-1" y="638" type="line"/>
      <point x="-102" y="638" type="line"/>
    </contour>
  </outline>
</glyph>
